<?xml version="1.0" standalone="no"?>
<!DOCTYPE svg PUBLIC "-//W3C//DTD SVG 20010904//EN"
 "http://www.w3.org/TR/2001/REC-SVG-20010904/DTD/svg10.dtd">
<svg version="1.0" xmlns="http://www.w3.org/2000/svg"
 width="401.000000pt" height="401.000000pt" viewBox="0 0 401.000000 401.000000"
 preserveAspectRatio="xMidYMid meet">
<metadata>
Created by potrace 1.11, written by Peter Selinger 2001-2013
</metadata>
<g transform="translate(0.000000,401.000000) scale(0.100000,-0.100000)"
fill="#000000" stroke="none">
<path d="M1994 3792 c-6 -4 -10 -16 -8 -27 2 -10 -2 -25 -8 -32 -6 -7 -7 -13
-2 -13 5 0 4 -4 -3 -8 -7 -4 -15 -23 -18 -42 -3 -19 -11 -40 -17 -47 -6 -8 -8
-16 -6 -19 3 -3 -3 -27 -13 -55 -10 -27 -16 -49 -13 -49 4 0 1 -6 -5 -14 -7
-8 -14 -24 -16 -35 -4 -23 -22 -82 -35 -116 -7 -17 -24 -71 -86 -275 -5 -14
-9 -27 -9 -30 -1 -3 -5 -13 -9 -22 -4 -9 -8 -22 -10 -30 -1 -7 -5 -18 -8 -24
-4 -6 -9 -21 -11 -35 -3 -13 -12 -41 -20 -61 -8 -20 -13 -39 -10 -41 2 -3 -3
-16 -11 -29 -9 -14 -13 -27 -10 -30 3 -4 -2 -20 -11 -37 -9 -18 -13 -36 -10
-41 3 -5 1 -11 -5 -15 -6 -4 -8 -11 -5 -16 4 -5 1 -9 -4 -9 -6 0 -10 -3 -10
-7 1 -5 1 -10 -1 -13 -1 -3 -4 -16 -6 -30 -3 -13 -9 -29 -14 -34 -6 -6 -10
-22 -10 -36 0 -15 -3 -30 -7 -34 -5 -4 -8 -11 -9 -14 0 -10 -54 -181 -70 -225
-23 -62 -18 -97 24 -158 44 -65 59 -63 81 11 7 25 16 52 19 60 7 19 7 19 16
60 5 19 12 37 16 40 4 3 9 19 11 35 2 17 9 38 15 49 7 10 10 25 7 32 -3 8 1
14 8 14 7 0 10 3 6 6 -3 4 3 29 14 58 11 28 21 60 23 72 2 11 7 27 12 35 5 8
9 21 9 29 0 8 3 20 6 25 7 10 29 77 33 98 2 7 5 19 8 27 3 8 18 56 33 105 15
50 31 99 35 110 23 60 60 187 60 205 0 11 3 20 8 20 4 0 13 21 20 48 13 53 20
75 22 82 1 3 2 8 2 12 -1 3 5 9 14 12 9 4 18 -3 24 -20 5 -13 9 -28 8 -32 -1
-4 3 -18 9 -32 21 -50 83 -250 83 -269 0 -11 5 -23 10 -26 6 -3 10 -15 10 -26
0 -11 9 -37 20 -58 10 -21 17 -41 14 -44 -3 -3 0 -16 7 -29 7 -12 12 -26 11
-30 -3 -12 36 -10 43 2 3 6 15 10 26 10 11 0 31 7 44 16 20 13 22 20 15 40 -5
13 -7 24 -4 24 2 0 -2 13 -10 29 -9 16 -12 31 -9 34 3 4 1 13 -5 20 -7 7 -13
22 -15 33 -2 10 -7 26 -10 34 -9 25 -31 95 -32 102 0 3 -3 10 -7 14 -5 4 -8
16 -8 26 0 10 -4 26 -9 36 -5 9 -21 58 -36 107 -15 50 -31 98 -36 107 -5 10
-9 32 -9 48 0 18 -4 29 -10 25 -6 -3 -7 1 -4 9 4 9 0 18 -9 22 -8 3 -13 13
-10 22 2 10 -3 31 -11 47 -8 15 -13 32 -10 37 3 4 -2 18 -11 32 -9 13 -15 28
-14 32 1 5 -3 22 -10 38 -6 16 -13 36 -14 45 -6 35 -22 48 -43 33z"/>
<path d="M1351 3218 c-5 -13 -9 -27 -11 -33 -1 -10 -27 -28 -42 -31 -5 -1 -10
-3 -13 -4 -8 -4 -24 -7 -42 -9 -16 -1 -16 -3 -3 -11 8 -5 24 -10 35 -10 38 -1
69 -35 74 -82 1 -5 8 -8 18 -8 9 0 13 3 10 7 -4 3 -2 12 4 20 6 7 8 13 4 13
-5 0 0 9 10 20 10 11 26 20 36 20 10 0 21 5 24 10 4 6 10 8 14 6 4 -3 13 -1
21 5 11 6 7 9 -15 10 -16 1 -33 1 -37 0 -5 0 -8 3 -8 8 0 5 -9 13 -20 16 -13
4 -23 18 -27 36 -7 39 -21 46 -32 17z"/>
<path d="M2623 3226 c3 -8 2 -18 -4 -21 -5 -4 -7 -10 -4 -15 6 -10 -74 -50
-100 -50 -22 0 -15 -9 11 -14 54 -11 102 -45 91 -63 -3 -5 1 -16 8 -26 8 -12
15 -14 20 -8 3 6 4 11 1 11 -3 0 2 14 12 32 13 23 30 35 67 46 l50 15 -40 9
c-44 10 -86 43 -79 63 3 8 -4 19 -17 25 -19 11 -21 10 -16 -4z"/>
<path d="M466 3082 c-3 -5 4 -19 15 -30 11 -12 16 -22 12 -22 -4 0 0 -5 10
-11 9 -6 15 -14 12 -20 -4 -5 -2 -9 4 -9 6 0 17 -13 26 -29 8 -16 20 -35 27
-43 7 -7 31 -39 52 -70 21 -32 47 -66 58 -78 10 -11 15 -20 11 -20 -4 0 0 -5
10 -11 9 -6 15 -14 12 -20 -4 -5 -1 -9 4 -9 6 0 11 -6 11 -14 0 -8 4 -16 8
-18 4 -1 28 -32 52 -68 25 -36 51 -69 58 -73 6 -4 12 -12 12 -17 0 -11 66
-108 84 -125 6 -5 17 -22 24 -36 8 -15 25 -38 38 -52 13 -14 24 -30 24 -35 0
-5 11 -19 25 -32 14 -13 23 -26 20 -29 -3 -2 7 -17 21 -32 15 -15 32 -37 38
-48 18 -33 119 -175 138 -195 10 -11 18 -23 18 -27 0 -5 10 -17 22 -29 12 -11
18 -20 14 -20 -4 0 -1 -6 6 -14 29 -31 63 -80 61 -88 -2 -4 11 -21 27 -37 17
-15 30 -34 30 -40 0 -7 4 -10 9 -7 5 4 11 2 13 -3 1 -4 35 -10 74 -13 71 -5
72 -5 69 19 -1 13 -16 41 -34 63 -17 21 -31 42 -31 47 0 4 -11 21 -25 37 -14
16 -25 32 -25 36 0 4 -8 16 -18 28 -10 11 -27 33 -38 47 -10 15 -25 33 -32 41
-7 8 -10 14 -6 14 4 0 -2 8 -12 18 -11 9 -25 29 -33 45 -8 15 -18 27 -23 27
-4 0 -8 7 -8 15 0 9 -7 18 -15 21 -8 4 -15 10 -15 16 0 5 -11 24 -25 42 -14
18 -25 38 -25 45 0 7 -5 9 -10 6 -5 -3 -10 1 -10 9 0 9 -4 16 -10 16 -5 0 -10
6 -10 13 -1 6 -14 28 -30 47 -17 19 -30 40 -30 47 0 7 -4 13 -10 13 -5 0 -10
7 -10 16 0 8 -5 12 -10 9 -5 -3 -10 1 -10 9 0 9 -4 16 -10 16 -5 0 -10 6 -10
13 0 8 -9 22 -20 32 -11 10 -17 22 -14 26 3 5 1 9 -3 9 -5 0 -37 40 -71 89
-33 49 -68 96 -77 105 -9 8 -16 18 -15 21 1 21 -1 27 -7 22 -6 -7 -33 37 -33
54 0 5 9 9 20 9 11 0 20 -4 20 -8 0 -5 23 -15 50 -22 28 -7 50 -17 50 -22 0
-4 8 -8 18 -8 10 0 23 -5 30 -12 7 -7 12 -9 12 -5 0 4 10 2 23 -5 12 -6 31
-13 41 -15 11 -2 25 -8 32 -14 6 -5 16 -9 20 -8 10 3 51 -14 97 -38 15 -8 27
-12 27 -8 0 3 13 -1 30 -10 16 -8 38 -15 50 -15 11 0 20 -4 20 -10 0 -5 12 -9
26 -8 35 3 69 74 54 113 -5 14 -13 25 -17 26 -29 3 -48 9 -51 18 -2 5 -10 7
-17 5 -8 -3 -27 1 -42 9 -46 24 -87 41 -97 38 -4 -1 -13 2 -20 7 -16 13 -126
53 -126 46 0 -3 -7 2 -16 10 -8 9 -24 16 -34 16 -10 0 -22 5 -25 10 -3 6 -17
10 -30 10 -13 0 -27 5 -30 10 -3 6 -17 10 -29 10 -13 0 -29 6 -35 14 -6 8 -24
16 -39 19 -30 6 -144 48 -152 57 -5 5 -21 10 -45 14 -6 1 -29 11 -52 23 -22
12 -43 19 -46 17 -3 -3 -15 0 -27 6 -30 16 -68 22 -74 12z"/>
<path d="M3492 3074 c-7 -7 -20 -11 -31 -9 -11 2 -22 -3 -25 -10 -2 -7 -13
-12 -23 -11 -10 2 -21 -1 -24 -6 -3 -5 -16 -10 -27 -11 -12 -1 -22 -5 -22 -10
0 -4 -4 -5 -10 -2 -5 3 -10 1 -10 -5 0 -6 -4 -8 -10 -5 -5 3 -10 2 -10 -4 0
-5 -8 -8 -17 -7 -10 2 -27 -3 -38 -10 -11 -8 -25 -14 -32 -14 -7 0 -37 -11
-67 -25 -30 -14 -61 -25 -70 -25 -8 0 -18 -4 -21 -10 -3 -5 -17 -10 -30 -10
-13 0 -27 -4 -30 -10 -3 -5 -17 -10 -31 -10 -13 0 -24 -4 -24 -9 0 -5 -13 -12
-30 -16 -16 -3 -51 -17 -77 -30 -26 -12 -56 -21 -66 -19 -10 1 -15 -1 -12 -7
4 -5 3 -9 -2 -10 -4 0 -16 -2 -25 -5 -10 -2 -25 -5 -34 -7 -8 -2 -19 -8 -22
-13 -4 -5 -18 -11 -32 -13 -14 -1 -28 -7 -31 -12 -3 -5 -17 -10 -32 -11 -15
-1 -27 -5 -27 -8 0 -3 -27 -14 -60 -24 -33 -11 -60 -22 -60 -26 0 -4 -6 -7
-12 -8 -26 -2 -69 -16 -108 -36 -14 -7 -45 -19 -70 -26 -25 -8 -54 -20 -66
-27 -11 -7 -23 -10 -26 -7 -4 3 -18 -2 -32 -11 -14 -10 -26 -14 -26 -10 0 4
-11 0 -25 -9 -13 -9 -32 -18 -42 -20 -10 -1 -27 -7 -38 -11 -11 -4 -35 -14
-53 -21 -34 -14 -56 -52 -73 -124 -12 -50 3 -62 49 -39 20 11 54 25 75 31 20
6 37 15 37 20 0 5 4 6 10 3 5 -3 20 0 32 7 13 6 31 13 41 15 10 2 29 10 42 19
14 9 25 13 25 10 0 -4 10 -1 23 6 12 7 30 12 40 13 10 0 21 5 25 10 4 6 14 11
22 13 8 1 31 9 50 16 67 27 75 30 86 31 6 0 18 5 25 11 8 6 25 14 39 17 14 2
50 15 80 27 73 30 83 34 170 66 41 15 80 31 86 35 6 5 14 6 17 2 4 -3 7 -1 7
6 0 7 4 9 10 6 5 -3 20 1 33 10 13 8 26 12 29 9 4 -3 17 1 30 9 12 8 34 18 48
22 14 4 45 16 68 27 24 11 50 17 58 14 8 -3 13 -2 10 3 -6 9 16 21 39 21 18 0
12 -30 -8 -45 -9 -7 -17 -17 -17 -23 0 -6 -4 -12 -8 -14 -4 -1 -17 -17 -27
-34 -48 -76 -76 -114 -84 -114 -5 0 -12 -11 -15 -25 -4 -14 -11 -25 -16 -25
-6 0 -10 -6 -10 -14 0 -7 -10 -24 -23 -37 -13 -13 -33 -40 -44 -59 -12 -19
-30 -44 -40 -56 -51 -57 -47 -76 22 -109 46 -22 71 -25 68 -7 -2 7 1 12 6 12
9 0 71 84 71 96 0 3 11 17 25 32 14 15 31 39 38 55 6 15 15 27 19 27 4 0 19
20 34 45 14 25 31 45 37 45 6 0 7 3 4 6 -4 4 12 29 34 55 23 27 37 49 32 49
-4 0 0 5 10 11 9 5 17 15 17 20 0 11 44 72 73 101 9 10 17 25 17 33 0 8 4 15
9 15 5 0 20 17 32 38 13 20 31 45 41 56 9 10 24 34 33 53 9 19 23 37 31 40 8
3 11 9 8 14 -3 5 0 9 5 9 6 0 11 9 11 20 0 15 -6 19 -23 18 -13 -1 -29 -8 -35
-14z"/>
<path d="M2344 2323 c-21 -8 -51 -20 -66 -25 -16 -6 -28 -16 -28 -22 0 -11 91
-66 167 -102 24 -10 43 -22 43 -25 0 -4 35 -25 78 -47 42 -22 102 -54 132 -71
30 -17 66 -37 80 -44 14 -6 31 -17 38 -24 7 -7 20 -13 28 -13 8 0 14 -5 14
-12 0 -6 3 -9 6 -5 4 3 27 -8 52 -25 25 -17 51 -31 59 -31 7 0 13 -4 13 -8 0
-4 11 -10 25 -13 14 -4 25 -11 25 -17 0 -6 4 -8 9 -4 5 3 17 -3 27 -12 10 -10
21 -19 26 -19 4 -1 13 -2 19 -3 5 0 8 -5 5 -9 -2 -4 4 -8 14 -9 11 -1 40 -16
65 -33 25 -17 65 -40 88 -51 23 -11 69 -36 102 -55 33 -19 68 -37 78 -40 32
-12 13 -31 -25 -25 -5 0 -8 -3 -8 -7 0 -10 -13 -11 -165 -16 -66 -2 -131 -7
-145 -11 -14 -4 -63 -8 -110 -10 -47 -1 -93 -5 -102 -9 -9 -4 -21 -5 -27 -2
-10 7 -24 -10 -27 -31 -1 -7 1 -15 5 -17 4 -3 7 -21 6 -41 -3 -55 19 -61 127
-39 15 3 69 7 120 9 99 3 221 12 278 20 19 3 77 6 128 6 50 1 92 4 92 8 0 7
23 9 210 14 74 3 138 5 142 6 15 2 -5 30 -25 37 -12 4 -24 10 -27 15 -3 4 -12
9 -20 11 -8 2 -23 11 -34 20 -10 9 -40 27 -65 39 -25 12 -87 46 -138 75 -50
30 -96 54 -101 54 -6 0 -17 6 -24 13 -7 7 -29 21 -48 30 -50 25 -73 40 -86 56
-6 8 -16 11 -22 7 -7 -4 -12 -4 -12 1 0 4 -28 22 -63 38 -34 17 -64 33 -67 36
-6 6 -43 21 -49 19 -2 -1 -7 2 -10 7 -11 15 -131 85 -218 127 -13 6 -23 17
-23 24 0 7 -5 10 -10 7 -6 -4 -37 9 -69 28 -31 18 -76 42 -99 52 -23 11 -42
23 -42 28 0 4 -4 6 -9 3 -5 -3 -14 1 -21 9 -6 8 -33 25 -58 38 -26 14 -76 40
-113 59 -85 45 -98 48 -145 31z"/>
<path d="M3315 2230 c-8 -37 -55 -70 -99 -70 -34 0 -27 -12 9 -17 32 -5 76
-28 68 -36 -3 -4 -1 -7 5 -7 7 0 12 -8 12 -19 0 -10 7 -24 16 -31 8 -8 14 -9
13 -4 -1 5 4 23 10 41 12 29 39 46 80 48 27 1 24 25 -3 25 -30 0 -76 36 -76
61 0 9 -6 22 -14 28 -12 10 -15 6 -21 -19z"/>
<path d="M625 2199 c-4 -16 -11 -29 -16 -29 -6 0 -8 -4 -4 -9 5 -9 -13 -18
-54 -26 -11 -2 -29 -9 -38 -14 -15 -9 -14 -10 10 -7 15 3 27 0 27 -5 0 -5 8
-9 18 -9 24 0 47 -27 56 -62 3 -16 11 -28 16 -28 6 0 9 3 8 8 -1 4 6 24 16 44
11 24 23 35 32 31 8 -3 14 -1 14 4 0 5 12 10 27 11 15 1 32 7 38 13 7 7 5 8
-6 4 -9 -3 -37 4 -63 15 -42 20 -51 33 -47 66 1 7 -5 14 -13 17 -10 4 -17 -3
-21 -24z"/>
<path d="M990 1993 c-8 -3 -17 -9 -20 -12 -5 -6 -38 -24 -125 -70 -27 -14 -51
-29 -53 -33 -2 -5 -8 -8 -14 -8 -5 0 -21 -9 -35 -20 -14 -11 -33 -20 -41 -20
-9 0 -23 -6 -31 -14 -9 -8 -61 -37 -116 -66 -55 -29 -107 -58 -115 -65 -8 -7
-30 -18 -47 -26 -18 -8 -33 -16 -33 -20 0 -3 -16 -11 -35 -19 -19 -8 -35 -17
-35 -22 0 -4 -6 -8 -14 -8 -7 0 -25 -9 -38 -20 -14 -10 -28 -17 -31 -14 -3 3
-15 -4 -27 -16 -11 -11 -25 -18 -29 -15 -5 2 -12 -2 -15 -11 -3 -9 -12 -14
-19 -12 -15 6 -47 -26 -38 -39 3 -5 67 -9 141 -8 74 0 140 -2 145 -5 12 -6 45
-9 170 -16 159 -9 220 -13 220 -15 0 -4 85 -11 191 -14 67 -2 146 -8 175 -14
30 -6 113 -13 184 -15 72 -3 150 -7 175 -10 25 -3 104 -8 175 -12 72 -3 149
-7 172 -9 32 -2 45 2 61 19 10 11 28 28 38 37 21 18 47 48 54 64 3 6 -47 12
-135 16 -77 3 -162 9 -190 13 -27 4 -95 8 -150 10 -55 1 -134 6 -175 10 -41 5
-100 9 -130 11 -30 1 -55 3 -55 4 0 2 -38 4 -85 6 -47 2 -101 6 -120 10 -19 4
-96 8 -170 11 -158 5 -160 5 -160 16 0 5 -11 6 -24 4 -38 -7 -21 20 25 41 21
9 39 21 39 27 0 5 3 7 6 3 3 -3 30 10 59 29 30 19 60 34 67 34 7 0 25 11 40
24 14 14 29 22 32 19 3 -4 6 -1 6 5 0 7 3 11 8 10 13 -2 57 19 116 57 31 19
56 33 56 30 0 -4 7 1 16 9 8 9 22 16 29 16 8 0 17 5 21 12 4 7 3 8 -4 4 -7 -4
-12 -2 -12 4 0 19 -60 100 -73 99 -7 0 -19 -3 -27 -6z"/>
<path d="M2467 1953 c-2 -5 -3 -17 -1 -28 2 -11 6 -50 8 -86 1 -36 7 -72 12
-80 4 -7 7 -28 5 -46 -1 -18 1 -33 6 -33 5 0 8 -12 7 -27 0 -16 3 -41 8 -58 5
-16 11 -53 13 -82 2 -29 6 -56 9 -62 3 -5 8 -36 10 -70 2 -33 7 -65 11 -70 6
-11 14 -61 19 -116 1 -16 6 -41 11 -55 4 -14 9 -45 9 -70 1 -25 5 -51 9 -57 5
-7 5 -13 1 -13 -3 0 -2 -6 3 -12 6 -7 9 -33 8 -58 -1 -25 2 -53 7 -62 4 -9 9
-30 11 -45 2 -16 6 -33 9 -38 3 -6 5 -21 4 -35 -1 -14 3 -44 10 -68 14 -50 12
-78 -7 -74 -17 3 -139 130 -139 144 0 5 -4 6 -10 3 -5 -3 -10 -2 -10 3 0 11
-148 162 -159 162 -4 0 -18 18 -31 40 -14 22 -31 40 -38 40 -7 0 -11 4 -8 9 3
4 -6 13 -19 19 -21 10 -26 8 -35 -8 -6 -11 -17 -20 -25 -20 -8 0 -15 -7 -15
-15 0 -9 -7 -18 -15 -21 -20 -8 -20 -44 0 -44 8 0 14 -4 12 -9 -1 -4 52 -63
118 -130 66 -67 154 -158 195 -202 41 -44 130 -137 198 -206 67 -69 122 -130
122 -135 0 -4 12 -13 26 -18 15 -6 22 -14 18 -22 -4 -6 -3 -8 4 -4 6 3 14 1
18 -6 18 -29 19 32 3 112 -10 48 -17 100 -17 116 1 16 -4 45 -10 64 -6 19 -13
58 -16 85 -2 28 -12 93 -21 145 -9 52 -19 124 -23 160 -4 36 -11 70 -15 76 -3
6 -7 36 -8 65 -1 30 -6 60 -12 67 -5 6 -7 12 -4 12 3 0 1 19 -5 42 -5 23 -11
64 -13 91 -3 27 -8 53 -11 59 -4 6 -7 36 -8 67 -1 31 -7 65 -13 76 -5 11 -9
36 -8 55 1 19 0 39 -3 45 -4 5 -7 19 -9 30 -9 58 -11 70 -13 70 -1 0 -3 20 -4
45 -1 25 -5 51 -10 59 -5 8 -10 39 -12 70 -1 31 -3 57 -4 59 -2 1 -3 6 -4 12
-1 8 -130 90 -142 90 -1 0 -5 -3 -7 -7z"/>
<path d="M2307 1575 c-20 -19 -37 -38 -37 -42 -1 -5 -19 -21 -40 -38 -21 -16
-39 -35 -40 -40 0 -13 -36 -45 -50 -45 -6 0 -10 -6 -10 -13 0 -7 -20 -32 -45
-55 -25 -23 -46 -45 -48 -49 -2 -8 -182 -195 -398 -415 -75 -76 -134 -139
-133 -141 2 -2 -28 -34 -67 -71 -73 -70 -98 -76 -79 -20 5 16 12 49 14 74 7
75 16 121 27 141 7 13 6 19 -1 19 -6 0 -8 5 -4 12 4 7 8 24 8 38 1 14 5 30 9
37 4 7 9 42 12 78 2 36 7 70 10 75 12 19 13 80 1 87 -25 16 -95 23 -118 11
-10 -5 -18 -19 -17 -31 0 -12 -5 -44 -11 -72 -6 -27 -15 -79 -20 -115 -15
-114 -30 -214 -40 -260 -5 -25 -9 -62 -10 -82 0 -21 -4 -38 -8 -38 -4 0 -9
-27 -10 -61 -1 -33 -4 -64 -7 -69 -3 -5 -10 -44 -16 -87 -5 -43 -16 -105 -23
-138 -11 -48 -11 -63 -1 -74 11 -11 18 -9 44 14 17 15 28 31 26 35 -2 4 7 13
20 20 14 7 25 17 25 20 0 4 36 44 81 89 45 44 78 81 74 81 -5 0 11 14 34 30
23 17 39 35 36 40 -3 5 4 14 16 21 13 6 34 25 48 43 14 17 34 38 44 48 9 10
17 20 17 23 0 9 252 255 261 255 5 0 8 3 7 8 -3 10 34 50 177 197 66 68 138
144 159 169 22 25 44 42 50 39 6 -3 8 -3 4 2 -4 4 10 24 31 44 60 57 73 82 58
111 -7 14 -12 41 -12 60 1 19 -1 43 -4 53 -6 15 -11 13 -44 -18z"/>
<path d="M916 1144 c-10 -37 -26 -50 -80 -66 l-46 -14 46 -12 c53 -14 68 -27
78 -65 8 -35 22 -35 31 0 9 37 23 53 46 53 11 0 19 5 19 11 0 5 4 8 9 5 5 -4
19 -2 32 2 20 8 19 10 -17 15 -52 9 -80 30 -87 67 -8 37 -23 39 -31 4z"/>
<path d="M3094 1119 c-10 -33 -19 -42 -69 -60 l-30 -11 45 -21 c37 -18 46 -28
53 -60 8 -35 10 -36 23 -20 7 10 14 25 14 34 0 16 54 49 79 49 22 0 -1 27 -32
36 -24 7 -35 17 -43 44 -15 45 -29 48 -40 9z"/>
<path d="M2014 668 c-4 -12 -8 -27 -9 -33 0 -5 -19 -19 -42 -30 -49 -23 -53
-32 -17 -41 34 -9 64 -38 64 -62 0 -10 3 -21 6 -25 8 -8 32 16 28 28 -8 22 51
64 79 57 5 -2 7 5 5 14 -2 10 -12 18 -23 19 -24 2 -66 35 -59 47 3 4 -1 17 -9
29 l-15 21 -8 -24z"/>
</g>
</svg>
